<?xml version="1.0" encoding="UTF-8" standalone="no"?><!DOCTYPE svg PUBLIC "-//W3C//DTD SVG 1.1//EN" "http://www.w3.org/Graphics/SVG/1.1/DTD/svg11.dtd"><svg width="100%" height="100%" viewBox="0 0 173 173" version="1.1" xmlns="http://www.w3.org/2000/svg" xmlns:xlink="http://www.w3.org/1999/xlink" xml:space="preserve" xmlns:serif="http://www.serif.com/" style="fill-rule:evenodd;clip-rule:evenodd;stroke-linejoin:round;stroke-miterlimit:2;"><g><g><path d="M5.043,74.711c0,-0 2.735,-7.589 4.106,-10.664c1.195,-2.681 2.53,-5.316 4.12,-7.783c1.818,-2.819 4.191,-6.366 6.785,-9.132c3.318,-3.539 7.505,-8.041 13.125,-12.102c7.128,-5.15 17.515,-11.018 26.747,-12.93c4.385,-0.908 10.332,-1.906 17.233,-1.998c9.532,-0.128 19.3,1.434 19.3,1.434c0.811,-0.049 -6.767,-2.546 -11.199,-3.516c-7.536,-1.65 -23.469,-1.908 -35.028,1.149c-11.682,3.09 -24.92,9.955 -33.502,21.377c-3.969,5.283 -8.282,13.746 -10.2,21.239c-1.766,6.903 -1.487,12.926 -1.487,12.926Z" style="fill:#015e9c;"/><path d="M79.809,22.698c-1.688,0.533 -3.38,1.068 -5.019,1.74c-1.78,0.729 -3.537,1.529 -5.224,2.455c-5.328,2.925 -7.805,4.82 -12.378,9.017c-10.135,9.3 -13.757,23.434 -13.317,36.752c1.019,30.865 22.975,58.925 49.712,72.761c9.722,5.031 20.705,8.591 31.753,8.453c-0,0 -11.386,5.362 -27.589,5.428c-6.037,0.024 -23.171,-1.437 -36.883,-6.048c-12.702,-4.272 -22.028,-11.501 -27.547,-16.597c-8.105,-7.484 -12.811,-17.018 -14.857,-21.937c-4.006,-9.63 -5.403,-19.861 -5.165,-27.986c0.464,-15.867 7.025,-30.152 14.672,-39.601c7.519,-9.291 16.832,-16.133 28.293,-20.485c9.466,-3.595 16.208,-4.176 23.549,-3.952Z" style="fill:#21b1e5;"/><path d="M60.636,38.445c-0.084,-0.124 -0.314,3.235 0.139,7.317c0.423,3.809 1.492,8.248 2.464,11.073c2.136,6.208 5.687,12.958 10.214,18.858c3.188,4.156 6.92,7.878 11.057,11.043c4.75,3.635 12.009,7.996 17.446,10.766c4.831,2.46 10.547,4.515 15.175,5.851c4.092,1.181 8.336,2.029 12.593,2.163c4.288,0.136 9.159,-0.406 13.139,-1.348c3.754,-0.888 7.799,-2.535 10.742,-4.304c2.675,-1.607 5.152,-4.12 6.919,-6.308c1.624,-2.01 2.756,-4.496 3.684,-6.82c0.912,-2.281 1.887,-7.124 1.887,-7.124c0,0 1.158,6.643 1.301,10.002c0.18,4.252 0.395,10.758 -0.216,15.506c-0.572,4.44 -1.477,8.962 -3.453,12.98c-2.091,4.252 -5.393,9.33 -9.093,12.533c-3.773,3.266 -8.902,5.775 -14.12,7.476c-3.251,1.06 -6.928,1.454 -9.877,1.597c-1.717,0.083 -4.681,0.132 -7.908,-0.134c-2.09,-0.173 -4.28,-0.432 -6.279,-0.764c-4.698,-0.782 -8.428,-1.977 -11.651,-3.278c-5.362,-2.164 -11.009,-4.578 -15.463,-7.442c-4.213,-2.708 -8.449,-5.958 -11.788,-8.897c-3.006,-2.646 -5.717,-5.632 -8.245,-8.739c-1.283,-1.576 -2.623,-3.312 -3.921,-5.108c-1.427,-1.974 -2.801,-4.02 -3.99,-6.006c-0.989,-1.651 -1.936,-3.408 -2.813,-5.175c-1.093,-2.201 -2.078,-4.417 -2.897,-6.46c-1.356,-3.379 -2.45,-6.886 -3.154,-10.459c-0.712,-3.612 -1.065,-7.716 -1.118,-11.211c-0.05,-3.263 0.125,-6.565 0.797,-9.759c0.691,-3.279 1.941,-6.943 3.346,-9.914c1.34,-2.835 5.083,-7.915 5.083,-7.915Z" style="fill:#015e9c;"/><path d="M141.228,39.704c0,-0 3.008,1.6 5.837,4.101c1.457,1.288 3.38,3.212 4.177,4.141c0.655,0.763 1.353,1.503 1.973,2.299c0.676,0.869 1.474,1.978 2.083,2.909c0.568,0.868 1.101,1.76 1.574,2.683c0.57,1.11 1.336,2.785 1.847,3.981c0.448,1.05 0.878,2.11 1.22,3.198c0.378,1.206 0.778,2.674 1.051,4.037c0.288,1.445 0.649,3.07 0.681,4.629c0.036,1.777 -0.122,4.209 -0.462,6.035c-0.316,1.693 -0.883,3.346 -1.581,4.921c-0.703,1.586 -1.632,3.207 -2.637,4.598c-0.987,1.365 -2.113,2.65 -3.395,3.744c-1.381,1.179 -3.115,2.48 -4.896,3.331c-1.87,0.893 -4.153,1.585 -6.322,2.025c-2.688,0.546 -6.821,1.104 -9.808,1.249c-2.702,0.132 -5.522,-0.051 -8.109,-0.375c-2.506,-0.314 -4.976,-0.905 -7.413,-1.569c-2.494,-0.68 -5.188,-1.594 -7.555,-2.511c-2.264,-0.877 -4.509,-1.924 -6.643,-2.99c-2.101,-1.049 -4.292,-2.263 -6.166,-3.404c-1.747,-1.064 -3.852,-2.586 -5.077,-3.445c-0.776,-0.544 -1.52,-1.133 -2.274,-1.706c-0.761,-0.577 -1.574,-1.116 -2.291,-1.758c-0.522,-0.468 -1.03,-0.82 -1.941,-1.699c-0.51,-0.493 -1.916,-1.793 -2.635,-2.545c-0.903,-0.945 -1.656,-1.88 -1.95,-2.368c-0.743,-1.235 -1.133,-2.546 -1.133,-2.546c0,-0 2.47,2.112 3.901,2.851c1.907,0.983 5.117,2.148 7.539,3.051c2.307,0.861 4.682,1.756 6.995,2.37c2.258,0.599 4.575,0.963 6.885,1.313c2.481,0.375 5.602,0.742 8,0.939c2.125,0.174 4.413,0.279 6.392,0.239c1.834,-0.037 3.665,-0.233 5.482,-0.479c1.998,-0.269 4.54,-0.595 6.504,-1.139c1.827,-0.506 3.603,-1.233 5.276,-2.124c1.716,-0.913 3.499,-2.078 5.02,-3.356c1.521,-1.278 3.043,-2.882 4.108,-4.315c0.965,-1.297 1.684,-2.791 2.283,-4.279c0.599,-1.487 1.108,-3.049 1.312,-4.645c0.215,-1.679 0.197,-3.665 -0.024,-5.425c-0.22,-1.754 -0.806,-3.635 -1.304,-5.14c-0.445,-1.342 -1.04,-2.635 -1.687,-3.892c-0.714,-1.384 -1.789,-3.26 -2.596,-4.416c-0.642,-0.922 -2.241,-2.518 -2.241,-2.518Z" style="fill:#1eafe3;"/><path d="M128.913,73.42c-0,0 4.301,-0.606 5.634,-1.279c0.567,-0.286 1.208,-0.515 1.738,-0.835c0.725,-0.438 1.411,-1.045 1.997,-1.48c0.894,-0.662 1.678,-1.363 2.355,-2.197c0.85,-1.048 2.066,-2.807 2.749,-4.09c0.602,-1.133 1.035,-2.48 1.345,-3.609c0.283,-1.031 0.477,-2.097 0.514,-3.166c0.041,-1.166 -0.118,-2.558 -0.268,-3.829c-0.154,-1.31 -0.317,-2.773 -0.656,-4.03c-0.328,-1.215 -0.826,-2.383 -1.378,-3.513c-0.612,-1.252 -1.61,-2.921 -2.294,-4.001c-0.548,-0.864 -1.212,-1.706 -1.813,-2.477c-0.574,-0.736 -1.182,-1.444 -1.792,-2.15c-0.663,-0.766 -1.419,-1.666 -2.184,-2.447c-0.768,-0.784 -1.59,-1.534 -2.425,-2.257c-0.956,-0.83 -2.253,-1.897 -3.314,-2.723c-0.996,-0.773 -2.016,-1.533 -3.055,-2.229c-1.033,-0.691 -2.089,-1.351 -3.181,-1.944c-1.14,-0.619 -2.741,-1.38 -3.664,-1.772c-0.601,-0.255 -1.23,-0.464 -1.873,-0.58c-0.679,-0.123 -2.203,-0.156 -2.203,-0.156c-0,-0 2.641,1.355 3.538,1.901c0.655,0.398 1.241,0.902 1.847,1.372c0.784,0.608 2.058,1.613 2.859,2.277c0.664,0.549 1.313,1.117 1.947,1.702c0.714,0.66 1.658,1.569 2.338,2.255c0.597,0.603 1.19,1.213 1.738,1.862c0.621,0.735 1.371,1.669 1.989,2.553c0.661,0.947 1.39,2.099 1.98,3.126c0.567,0.985 1.139,2.123 1.562,3.033c0.367,0.79 0.684,1.604 0.976,2.425c0.317,0.894 0.708,1.938 0.93,2.943c0.239,1.081 0.377,2.415 0.505,3.541c0.121,1.067 0.203,2.141 0.262,3.213c0.06,1.072 0.126,2.26 0.096,3.221c-0.027,0.853 -0.155,1.713 -0.275,2.545c-0.104,0.72 -0.406,1.504 -0.676,2.22c-0.267,0.712 -0.626,1.449 -0.94,2.078c-0.29,0.578 -0.599,1.148 -0.948,1.692c-0.465,0.724 -1.292,1.908 -1.838,2.648c-0.454,0.616 -0.898,1.247 -1.437,1.79c-0.687,0.693 -2.685,2.367 -2.685,2.367Z" style="fill:#015e9c;"/><path d="M64.627,13.921c0.332,-0.128 3.108,-0.488 4.676,-0.567c1.887,-0.095 4.738,-0.017 6.647,-0.002c1.604,0.013 3.208,0.024 4.81,0.094c1.773,0.078 4.216,0.204 5.832,0.372c1.298,0.135 2.586,0.368 3.863,0.637c1.716,0.36 4.343,0.924 6.434,1.528c2.069,0.598 4.368,1.4 6.112,2.095c1.493,0.596 2.921,1.345 4.351,2.078c1.813,0.929 4.556,2.302 6.525,3.498c1.834,1.115 3.791,2.513 5.284,3.68c1.302,1.017 2.57,2.224 3.677,3.32c1.042,1.034 2.179,2.346 2.961,3.259c0.608,0.711 1.269,1.535 1.725,2.215c0.394,0.588 0.864,1.197 1.011,1.866c0.27,1.224 0.026,1.253 0.026,1.253c0,0 -1.625,-1.554 -2.438,-2.331c-0.841,-0.804 -1.726,-1.679 -2.611,-2.496c-0.972,-0.898 -2.2,-2.032 -3.225,-2.893c-0.945,-0.793 -2.067,-1.631 -2.924,-2.271c-0.726,-0.542 -1.457,-1.079 -2.218,-1.571c-0.815,-0.527 -1.77,-1.077 -2.669,-1.591c-0.942,-0.539 -2.029,-1.133 -2.983,-1.644c-0.907,-0.485 -1.864,-1.011 -2.739,-1.421c-0.821,-0.385 -1.712,-0.718 -2.513,-1.039c-0.76,-0.304 -1.526,-0.593 -2.29,-0.885c-1.007,-0.385 -2.664,-1.03 -3.751,-1.423c-0.916,-0.331 -1.845,-0.626 -2.769,-0.934c-1.14,-0.381 -2.791,-0.96 -4.074,-1.35c-1.198,-0.364 -2.4,-0.726 -3.625,-0.989c-1.235,-0.266 -2.522,-0.423 -3.787,-0.605c-1.296,-0.186 -2.658,-0.363 -3.991,-0.515c-1.334,-0.152 -2.836,-0.284 -4.015,-0.396c-1.017,-0.098 -2.239,-0.205 -3.054,-0.279c-0.612,-0.055 -1.288,-0.115 -1.836,-0.163c-0.484,-0.043 -0.967,-0.086 -1.451,-0.129c-0.623,-0.055 -1.523,-0.14 -2.285,-0.201c-0.828,-0.067 -3.017,-0.073 -2.686,-0.2Z" style="fill:#1eafe3;"/></g><circle cx="86.306" cy="86.306" r="86.306" style="fill:none;"/></g></svg>